<?xml version="1.0" encoding="UTF-8" standalone="no"?>
<!DOCTYPE svg PUBLIC "-//W3C//DTD SVG 1.1//EN"
 "http://www.w3.org/Graphics/SVG/1.1/DTD/svg11.dtd">
<!-- Generated by graphviz version 15.0.0 (20260523.1842)
 -->
<!-- Title: G Pages: 1 -->
<svg width="992pt" height="406pt"
 viewBox="0.00 0.00 992.00 406.00" xmlns="http://www.w3.org/2000/svg" xmlns:xlink="http://www.w3.org/1999/xlink">
<g id="graph0" class="graph" transform="scale(1 1) rotate(0) translate(4 402.38)">

<polygon fill="white" stroke="none" points="-4,4 -4,-402.38 988,-402.38 988,4 -4,4"/>
<polygon fill="none" stroke="black" points="8,-372.62 8,-394.38 631,-394.38 631,-372.62 8,-372.62"/>
<text xml:space="preserve" text-anchor="start" x="249.75" y="-379.07" font-family="Arial" font-weight="bold" font-size="14.00">Legenda de Colunas</text>
<text xml:space="preserve" text-anchor="start" x="381.75" y="-379.07" font-family="Arial" font-size="14.00">  </text>
<polygon fill="none" stroke="black" points="8,-350.88 8,-372.62 104.5,-372.62 104.5,-350.88 8,-350.88"/>
<text xml:space="preserve" text-anchor="start" x="11" y="-357.32" font-family="Arial" font-weight="bold" font-size="14.00">Relativo</text>
<text xml:space="preserve" text-anchor="start" x="63.5" y="-357.32" font-family="Arial" font-size="14.00">  </text>
<polygon fill="none" stroke="black" points="104.5,-350.88 104.5,-372.62 631,-372.62 631,-350.88 104.5,-350.88"/>
<text xml:space="preserve" text-anchor="start" x="107.5" y="-356.88" font-family="Arial" font-size="14.00">Dentre as instâncias criadas desta mensagem, em quantas o campo foi preenchido.    </text>
<polygon fill="none" stroke="black" points="8,-329.12 8,-350.88 104.5,-350.88 104.5,-329.12 8,-329.12"/>
<text xml:space="preserve" text-anchor="start" x="11" y="-335.57" font-family="Arial" font-weight="bold" font-size="14.00">Absoluto</text>
<text xml:space="preserve" text-anchor="start" x="69.5" y="-335.57" font-family="Arial" font-size="14.00">  </text>
<polygon fill="none" stroke="black" points="104.5,-329.12 104.5,-350.88 631,-350.88 631,-329.12 104.5,-329.12"/>
<text xml:space="preserve" text-anchor="start" x="107.5" y="-335.12" font-family="Arial" font-size="14.00">No total de croquis processados, em quantos o campo foi preenchido.    </text>
<!-- aresta.Indice -->
<g id="node1" class="node">

<g id="a_node1_0"><a data-tooltip="Representa um índice de croquis de escalada, apontando para onde recuperar o croqui inteiro.">
<polygon fill="none" stroke="black" points="8,-255.25 8,-277 233.75,-277 233.75,-255.25 8,-255.25"/>
<text xml:space="preserve" text-anchor="start" x="97.62" y="-261.7" font-family="Arial" font-weight="bold" font-size="14.00">Indice</text>
<text xml:space="preserve" text-anchor="start" x="136.62" y="-261.7" font-family="Arial" font-size="14.00">  </text>
</a>
</g>
<polygon fill="none" stroke="black" points="8,-233.5 8,-255.25 73.25,-255.25 73.25,-233.5 8,-233.5"/>
<text xml:space="preserve" text-anchor="start" x="13.62" y="-239.95" font-family="Arial" font-weight="bold" font-size="14.00">Campo</text>
<text xml:space="preserve" text-anchor="start" x="60.12" y="-239.95" font-family="Arial" font-size="14.00">  </text>
<polygon fill="none" stroke="black" points="73.25,-233.5 73.25,-255.25 153.5,-255.25 153.5,-233.5 73.25,-233.5"/>
<text xml:space="preserve" text-anchor="start" x="83.38" y="-239.95" font-family="Arial" font-weight="bold" font-size="14.00">Relativo</text>
<text xml:space="preserve" text-anchor="start" x="135.88" y="-239.95" font-family="Arial" font-size="14.00">  </text>
<polygon fill="none" stroke="black" points="153.5,-233.5 153.5,-255.25 233.75,-255.25 233.75,-233.5 153.5,-233.5"/>
<text xml:space="preserve" text-anchor="start" x="160.62" y="-239.95" font-family="Arial" font-weight="bold" font-size="14.00">Absoluto</text>
<text xml:space="preserve" text-anchor="start" x="219.12" y="-239.95" font-family="Arial" font-size="14.00">  </text>
<g id="a_node1_1"><a data-tooltip="URL base da qual todos os croquis possuem suas URLs relativas a.">
<polygon fill="none" stroke="black" points="8,-211.75 8,-233.5 73.25,-233.5 73.25,-211.75 8,-211.75"/>
<text xml:space="preserve" text-anchor="start" x="11" y="-217.75" font-family="Arial" font-size="14.00">url_base  </text>
</a>
</g>
<polygon fill="#ff0000" stroke="none" points="73.25,-211.75 73.25,-233.5 153.5,-233.5 153.5,-211.75 73.25,-211.75"/>
<polygon fill="none" stroke="black" points="73.25,-211.75 73.25,-233.5 153.5,-233.5 153.5,-211.75 73.25,-211.75"/>
<text xml:space="preserve" text-anchor="start" x="76.25" y="-217.75" font-family="Arial" font-size="14.00" fill="white">100% (1/1)  </text>
<polygon fill="#ff0000" stroke="none" points="153.5,-211.75 153.5,-233.5 233.75,-233.5 233.75,-211.75 153.5,-211.75"/>
<polygon fill="none" stroke="black" points="153.5,-211.75 153.5,-233.5 233.75,-233.5 233.75,-211.75 153.5,-211.75"/>
<text xml:space="preserve" text-anchor="start" x="156.5" y="-217.75" font-family="Arial" font-size="14.00" fill="white">100% (1/1)  </text>
<g id="a_node1_2"><a data-tooltip="Lista de croquis disponíveis.">
<polygon fill="none" stroke="black" points="8,-190 8,-211.75 73.25,-211.75 73.25,-190 8,-190"/>
<text xml:space="preserve" text-anchor="start" x="11" y="-196" font-family="Arial" font-size="14.00">croquis  </text>
</a>
</g>
<polygon fill="#ff0000" stroke="none" points="73.25,-190 73.25,-211.75 153.5,-211.75 153.5,-190 73.25,-190"/>
<polygon fill="none" stroke="black" points="73.25,-190 73.25,-211.75 153.5,-211.75 153.5,-190 73.25,-190"/>
<text xml:space="preserve" text-anchor="start" x="76.25" y="-196" font-family="Arial" font-size="14.00" fill="white">100% (1/1)  </text>
<polygon fill="#ff0000" stroke="none" points="153.5,-190 153.5,-211.75 233.75,-211.75 233.75,-190 153.5,-190"/>
<polygon fill="none" stroke="black" points="153.5,-190 153.5,-211.75 233.75,-211.75 233.75,-190 153.5,-190"/>
<text xml:space="preserve" text-anchor="start" x="156.5" y="-196" font-family="Arial" font-size="14.00" fill="white">100% (1/1)  </text>
</g>
<!-- aresta.ResumoCroqui -->
<g id="node2" class="node">

<g id="a_node2_3"><a data-tooltip="Resumo de um croqui que está disponível para o índice.">
<polygon fill="none" stroke="black" points="285.75,-299.38 285.75,-321.12 669.75,-321.12 669.75,-299.38 285.75,-299.38"/>
<text xml:space="preserve" text-anchor="start" x="425.25" y="-305.82" font-family="Arial" font-weight="bold" font-size="14.00">ResumoCroqui</text>
<text xml:space="preserve" text-anchor="start" x="522.75" y="-305.82" font-family="Arial" font-size="14.00">  </text>
</a>
</g>
<polygon fill="none" stroke="black" points="285.75,-277.62 285.75,-299.38 479.25,-299.38 479.25,-277.62 285.75,-277.62"/>
<text xml:space="preserve" text-anchor="start" x="355.5" y="-284.07" font-family="Arial" font-weight="bold" font-size="14.00">Campo</text>
<text xml:space="preserve" text-anchor="start" x="402" y="-284.07" font-family="Arial" font-size="14.00">  </text>
<polygon fill="none" stroke="black" points="479.25,-277.62 479.25,-299.38 574.5,-299.38 574.5,-277.62 479.25,-277.62"/>
<text xml:space="preserve" text-anchor="start" x="496.88" y="-284.07" font-family="Arial" font-weight="bold" font-size="14.00">Relativo</text>
<text xml:space="preserve" text-anchor="start" x="549.38" y="-284.07" font-family="Arial" font-size="14.00">  </text>
<polygon fill="none" stroke="black" points="574.5,-277.62 574.5,-299.38 669.75,-299.38 669.75,-277.62 574.5,-277.62"/>
<text xml:space="preserve" text-anchor="start" x="589.12" y="-284.07" font-family="Arial" font-weight="bold" font-size="14.00">Absoluto</text>
<text xml:space="preserve" text-anchor="start" x="647.62" y="-284.07" font-family="Arial" font-size="14.00">  </text>
<g id="a_node2_4"><a data-tooltip="Identificador único do croqui.">
<polygon fill="none" stroke="black" points="285.75,-255.88 285.75,-277.62 479.25,-277.62 479.25,-255.88 285.75,-255.88"/>
<text xml:space="preserve" text-anchor="start" x="288.75" y="-261.88" font-family="Arial" font-size="14.00">id  </text>
</a>
</g>
<polygon fill="#ff0000" stroke="none" points="479.25,-255.88 479.25,-277.62 574.5,-277.62 574.5,-255.88 479.25,-255.88"/>
<polygon fill="none" stroke="black" points="479.25,-255.88 479.25,-277.62 574.5,-277.62 574.5,-255.88 479.25,-255.88"/>
<text xml:space="preserve" text-anchor="start" x="482.25" y="-261.88" font-family="Arial" font-size="14.00" fill="white">100% (22/22)  </text>
<polygon fill="#ff0000" stroke="none" points="574.5,-255.88 574.5,-277.62 669.75,-277.62 669.75,-255.88 574.5,-255.88"/>
<polygon fill="none" stroke="black" points="574.5,-255.88 574.5,-277.62 669.75,-277.62 669.75,-255.88 574.5,-255.88"/>
<text xml:space="preserve" text-anchor="start" x="577.5" y="-261.88" font-family="Arial" font-size="14.00" fill="white">100% (22/22)  </text>
<g id="a_node2_5"><a data-tooltip="Nome do local do croqui.">
<polygon fill="none" stroke="black" points="285.75,-234.12 285.75,-255.88 479.25,-255.88 479.25,-234.12 285.75,-234.12"/>
<text xml:space="preserve" text-anchor="start" x="288.75" y="-240.12" font-family="Arial" font-size="14.00">nome  </text>
</a>
</g>
<polygon fill="#ff0000" stroke="none" points="479.25,-234.12 479.25,-255.88 574.5,-255.88 574.5,-234.12 479.25,-234.12"/>
<polygon fill="none" stroke="black" points="479.25,-234.12 479.25,-255.88 574.5,-255.88 574.5,-234.12 479.25,-234.12"/>
<text xml:space="preserve" text-anchor="start" x="482.25" y="-240.12" font-family="Arial" font-size="14.00" fill="white">100% (22/22)  </text>
<polygon fill="#ff0000" stroke="none" points="574.5,-234.12 574.5,-255.88 669.75,-255.88 669.75,-234.12 574.5,-234.12"/>
<polygon fill="none" stroke="black" points="574.5,-234.12 574.5,-255.88 669.75,-255.88 669.75,-234.12 574.5,-234.12"/>
<text xml:space="preserve" text-anchor="start" x="577.5" y="-240.12" font-family="Arial" font-size="14.00" fill="white">100% (22/22)  </text>
<g id="a_node2_6"><a data-tooltip="Descrição curta e em alto nível do local.">
<polygon fill="none" stroke="black" points="285.75,-212.38 285.75,-234.12 479.25,-234.12 479.25,-212.38 285.75,-212.38"/>
<text xml:space="preserve" text-anchor="start" x="288.75" y="-218.38" font-family="Arial" font-size="14.00">descricao  </text>
</a>
</g>
<polygon fill="#ff0000" stroke="none" points="479.25,-212.38 479.25,-234.12 574.5,-234.12 574.5,-212.38 479.25,-212.38"/>
<polygon fill="none" stroke="black" points="479.25,-212.38 479.25,-234.12 574.5,-234.12 574.5,-212.38 479.25,-212.38"/>
<text xml:space="preserve" text-anchor="start" x="482.25" y="-218.38" font-family="Arial" font-size="14.00" fill="white">100% (22/22)  </text>
<polygon fill="#ff0000" stroke="none" points="574.5,-212.38 574.5,-234.12 669.75,-234.12 669.75,-212.38 574.5,-212.38"/>
<polygon fill="none" stroke="black" points="574.5,-212.38 574.5,-234.12 669.75,-234.12 669.75,-212.38 574.5,-212.38"/>
<text xml:space="preserve" text-anchor="start" x="577.5" y="-218.38" font-family="Arial" font-size="14.00" fill="white">100% (22/22)  </text>
<g id="a_node2_7"><a data-tooltip="Nome do arquivo do croqui.">
<polygon fill="none" stroke="black" points="285.75,-190.62 285.75,-212.38 479.25,-212.38 479.25,-190.62 285.75,-190.62"/>
<text xml:space="preserve" text-anchor="start" x="288.75" y="-196.62" font-family="Arial" font-size="14.00">nome_arquivo  </text>
</a>
</g>
<polygon fill="#ff0000" stroke="none" points="479.25,-190.62 479.25,-212.38 574.5,-212.38 574.5,-190.62 479.25,-190.62"/>
<polygon fill="none" stroke="black" points="479.25,-190.62 479.25,-212.38 574.5,-212.38 574.5,-190.62 479.25,-190.62"/>
<text xml:space="preserve" text-anchor="start" x="482.25" y="-196.62" font-family="Arial" font-size="14.00" fill="white">100% (22/22)  </text>
<polygon fill="#ff0000" stroke="none" points="574.5,-190.62 574.5,-212.38 669.75,-212.38 669.75,-190.62 574.5,-190.62"/>
<polygon fill="none" stroke="black" points="574.5,-190.62 574.5,-212.38 669.75,-212.38 669.75,-190.62 574.5,-190.62"/>
<text xml:space="preserve" text-anchor="start" x="577.5" y="-196.62" font-family="Arial" font-size="14.00" fill="white">100% (22/22)  </text>
<g id="a_node2_8"><a data-tooltip="URL para recuperar o croqui inteiro, relativo ao website do indice.">
<polygon fill="none" stroke="black" points="285.75,-168.88 285.75,-190.62 479.25,-190.62 479.25,-168.88 285.75,-168.88"/>
<text xml:space="preserve" text-anchor="start" x="288.75" y="-174.88" font-family="Arial" font-size="14.00">url  </text>
</a>
</g>
<polygon fill="#ff0000" stroke="none" points="479.25,-168.88 479.25,-190.62 574.5,-190.62 574.5,-168.88 479.25,-168.88"/>
<polygon fill="none" stroke="black" points="479.25,-168.88 479.25,-190.62 574.5,-190.62 574.5,-168.88 479.25,-168.88"/>
<text xml:space="preserve" text-anchor="start" x="482.25" y="-174.88" font-family="Arial" font-size="14.00" fill="white">100% (22/22)  </text>
<polygon fill="#ff0000" stroke="none" points="574.5,-168.88 574.5,-190.62 669.75,-190.62 669.75,-168.88 574.5,-168.88"/>
<polygon fill="none" stroke="black" points="574.5,-168.88 574.5,-190.62 669.75,-190.62 669.75,-168.88 574.5,-168.88"/>
<text xml:space="preserve" text-anchor="start" x="577.5" y="-174.88" font-family="Arial" font-size="14.00" fill="white">100% (22/22)  </text>
<g id="a_node2_9"><a data-tooltip="Checksum SHA256 da última versão do croqui. Se diferente do checksum da versão baixada, há atualizações.">
<polygon fill="none" stroke="black" points="285.75,-147.12 285.75,-168.88 479.25,-168.88 479.25,-147.12 285.75,-147.12"/>
<text xml:space="preserve" text-anchor="start" x="288.75" y="-153.12" font-family="Arial" font-size="14.00">checksum_sha256_croqui  </text>
</a>
</g>
<polygon fill="#ff0000" stroke="none" points="479.25,-147.12 479.25,-168.88 574.5,-168.88 574.5,-147.12 479.25,-147.12"/>
<polygon fill="none" stroke="black" points="479.25,-147.12 479.25,-168.88 574.5,-168.88 574.5,-147.12 479.25,-147.12"/>
<text xml:space="preserve" text-anchor="start" x="482.25" y="-153.12" font-family="Arial" font-size="14.00" fill="white">100% (22/22)  </text>
<polygon fill="#ff0000" stroke="none" points="574.5,-147.12 574.5,-168.88 669.75,-168.88 669.75,-147.12 574.5,-147.12"/>
<polygon fill="none" stroke="black" points="574.5,-147.12 574.5,-168.88 669.75,-168.88 669.75,-147.12 574.5,-147.12"/>
<text xml:space="preserve" text-anchor="start" x="577.5" y="-153.12" font-family="Arial" font-size="14.00" fill="white">100% (22/22)  </text>
<g id="a_node2_10"><a data-tooltip="Checksum SHA256 da última versão da thumbnail. Se diferente do checksum da versão baixada, há atualizações. A thumbnail *sempre* será localizada em &quot;imagens/thumbnail.webp&quot;, relativa à pasta onde está o croqui.binarypb.">
<polygon fill="none" stroke="black" points="285.75,-125.38 285.75,-147.12 479.25,-147.12 479.25,-125.38 285.75,-125.38"/>
<text xml:space="preserve" text-anchor="start" x="288.75" y="-131.38" font-family="Arial" font-size="14.00">checksum_sha256_thumbnail  </text>
</a>
</g>
<polygon fill="#ff0000" stroke="none" points="479.25,-125.38 479.25,-147.12 574.5,-147.12 574.5,-125.38 479.25,-125.38"/>
<polygon fill="none" stroke="black" points="479.25,-125.38 479.25,-147.12 574.5,-147.12 574.5,-125.38 479.25,-125.38"/>
<text xml:space="preserve" text-anchor="start" x="482.25" y="-131.38" font-family="Arial" font-size="14.00" fill="white">100% (22/22)  </text>
<polygon fill="#ff0000" stroke="none" points="574.5,-125.38 574.5,-147.12 669.75,-147.12 669.75,-125.38 574.5,-125.38"/>
<polygon fill="none" stroke="black" points="574.5,-125.38 574.5,-147.12 669.75,-147.12 669.75,-125.38 574.5,-125.38"/>
<text xml:space="preserve" text-anchor="start" x="577.5" y="-131.38" font-family="Arial" font-size="14.00" fill="white">100% (22/22)  </text>
<g id="a_node2_11"><a data-tooltip="Timestamp do último update.">
<polygon fill="none" stroke="black" points="285.75,-103.62 285.75,-125.38 479.25,-125.38 479.25,-103.62 285.75,-103.62"/>
<text xml:space="preserve" text-anchor="start" x="288.75" y="-109.62" font-family="Arial" font-size="14.00">timestamp_update  </text>
</a>
</g>
<polygon fill="#ff0000" stroke="none" points="479.25,-103.62 479.25,-125.38 574.5,-125.38 574.5,-103.62 479.25,-103.62"/>
<polygon fill="none" stroke="black" points="479.25,-103.62 479.25,-125.38 574.5,-125.38 574.5,-103.62 479.25,-103.62"/>
<text xml:space="preserve" text-anchor="start" x="482.25" y="-109.62" font-family="Arial" font-size="14.00" fill="white">100% (22/22)  </text>
<polygon fill="#ff0000" stroke="none" points="574.5,-103.62 574.5,-125.38 669.75,-125.38 669.75,-103.62 574.5,-103.62"/>
<polygon fill="none" stroke="black" points="574.5,-103.62 574.5,-125.38 669.75,-125.38 669.75,-103.62 574.5,-103.62"/>
<text xml:space="preserve" text-anchor="start" x="577.5" y="-109.62" font-family="Arial" font-size="14.00" fill="white">100% (22/22)  </text>
<g id="a_node2_12"><a data-tooltip="Coordenada principal do croqui (baseada no estacionamento do primeiro pico).">
<polygon fill="none" stroke="black" points="285.75,-81.88 285.75,-103.62 479.25,-103.62 479.25,-81.88 285.75,-81.88"/>
<text xml:space="preserve" text-anchor="start" x="288.75" y="-87.88" font-family="Arial" font-size="14.00">localizacao  </text>
</a>
</g>
<polygon fill="#1700e7" stroke="none" points="479.25,-81.88 479.25,-103.62 574.5,-103.62 574.5,-81.88 479.25,-81.88"/>
<polygon fill="none" stroke="black" points="479.25,-81.88 479.25,-103.62 574.5,-103.62 574.5,-81.88 479.25,-81.88"/>
<text xml:space="preserve" text-anchor="start" x="493.5" y="-87.88" font-family="Arial" font-size="14.00" fill="white">9% (2/22)  </text>
<polygon fill="#1700e7" stroke="none" points="574.5,-81.88 574.5,-103.62 669.75,-103.62 669.75,-81.88 574.5,-81.88"/>
<polygon fill="none" stroke="black" points="574.5,-81.88 574.5,-103.62 669.75,-103.62 669.75,-81.88 574.5,-81.88"/>
<text xml:space="preserve" text-anchor="start" x="588.75" y="-87.88" font-family="Arial" font-size="14.00" fill="white">9% (2/22)  </text>
</g>
<!-- aresta.Indice&#45;&gt;aresta.ResumoCroqui -->
<g id="edge1" class="edge">

<path fill="none" stroke="black" d="M234.75,-200.88C249.38,-200.88 255.61,-201.24 266.3,-201.41"/>
<polygon fill="black" stroke="black" points="266.21,-204.91 276.24,-201.49 266.26,-197.91 266.21,-204.91"/>
</g>
<!-- google.protobuf.Timestamp -->
<g id="node3" class="node">

<polygon fill="none" stroke="black" points="721.75,-182.25 721.75,-204 976,-204 976,-182.25 721.75,-182.25"/>
<text xml:space="preserve" text-anchor="start" x="808.75" y="-188.7" font-family="Arial" font-weight="bold" font-size="14.00">Timestamp</text>
<text xml:space="preserve" text-anchor="start" x="881.5" y="-188.7" font-family="Arial" font-size="14.00">  </text>
<polygon fill="none" stroke="black" points="721.75,-160.5 721.75,-182.25 785.5,-182.25 785.5,-160.5 721.75,-160.5"/>
<text xml:space="preserve" text-anchor="start" x="726.62" y="-166.95" font-family="Arial" font-weight="bold" font-size="14.00">Campo</text>
<text xml:space="preserve" text-anchor="start" x="773.12" y="-166.95" font-family="Arial" font-size="14.00">  </text>
<polygon fill="none" stroke="black" points="785.5,-160.5 785.5,-182.25 880.75,-182.25 880.75,-160.5 785.5,-160.5"/>
<text xml:space="preserve" text-anchor="start" x="803.12" y="-166.95" font-family="Arial" font-weight="bold" font-size="14.00">Relativo</text>
<text xml:space="preserve" text-anchor="start" x="855.62" y="-166.95" font-family="Arial" font-size="14.00">  </text>
<polygon fill="none" stroke="black" points="880.75,-160.5 880.75,-182.25 976,-182.25 976,-160.5 880.75,-160.5"/>
<text xml:space="preserve" text-anchor="start" x="895.38" y="-166.95" font-family="Arial" font-weight="bold" font-size="14.00">Absoluto</text>
<text xml:space="preserve" text-anchor="start" x="953.88" y="-166.95" font-family="Arial" font-size="14.00">  </text>
<polygon fill="none" stroke="black" points="721.75,-138.75 721.75,-160.5 785.5,-160.5 785.5,-138.75 721.75,-138.75"/>
<text xml:space="preserve" text-anchor="start" x="724.75" y="-144.75" font-family="Arial" font-size="14.00">seconds  </text>
<polygon fill="#ff0000" stroke="none" points="785.5,-138.75 785.5,-160.5 880.75,-160.5 880.75,-138.75 785.5,-138.75"/>
<polygon fill="none" stroke="black" points="785.5,-138.75 785.5,-160.5 880.75,-160.5 880.75,-138.75 785.5,-138.75"/>
<text xml:space="preserve" text-anchor="start" x="788.5" y="-144.75" font-family="Arial" font-size="14.00" fill="white">100% (22/22)  </text>
<polygon fill="#ff0000" stroke="none" points="880.75,-138.75 880.75,-160.5 976,-160.5 976,-138.75 880.75,-138.75"/>
<polygon fill="none" stroke="black" points="880.75,-138.75 880.75,-160.5 976,-160.5 976,-138.75 880.75,-138.75"/>
<text xml:space="preserve" text-anchor="start" x="883.75" y="-144.75" font-family="Arial" font-size="14.00" fill="white">100% (22/22)  </text>
<polygon fill="none" stroke="black" points="721.75,-117 721.75,-138.75 785.5,-138.75 785.5,-117 721.75,-117"/>
<text xml:space="preserve" text-anchor="start" x="724.75" y="-123" font-family="Arial" font-size="14.00">nanos  </text>
<polygon fill="#ff0000" stroke="none" points="785.5,-117 785.5,-138.75 880.75,-138.75 880.75,-117 785.5,-117"/>
<polygon fill="none" stroke="black" points="785.5,-117 785.5,-138.75 880.75,-138.75 880.75,-117 785.5,-117"/>
<text xml:space="preserve" text-anchor="start" x="788.5" y="-123" font-family="Arial" font-size="14.00" fill="white">100% (22/22)  </text>
<polygon fill="#ff0000" stroke="none" points="880.75,-117 880.75,-138.75 976,-138.75 976,-117 880.75,-117"/>
<polygon fill="none" stroke="black" points="880.75,-117 880.75,-138.75 976,-138.75 976,-117 880.75,-117"/>
<text xml:space="preserve" text-anchor="start" x="883.75" y="-123" font-family="Arial" font-size="14.00" fill="white">100% (22/22)  </text>
</g>
<!-- aresta.ResumoCroqui&#45;&gt;google.protobuf.Timestamp -->
<g id="edge2" class="edge">

<path fill="none" stroke="black" d="M670.75,-114.5C694.14,-114.5 688.92,-146.64 702.92,-157.19"/>
<polygon fill="black" stroke="black" points="701.72,-160.48 712.3,-160.06 703.76,-153.79 701.72,-160.48"/>
</g>
<!-- aresta.Coordenada -->
<g id="node4" class="node">

<g id="a_node4_13"><a data-tooltip="Estrutura de geolocalização. &#160;Utiliza&#45;se o padrão E7 para armazenamento de coordenadas. Esse padrão representa basicamente pegar a coordenada (por exemplo a retornada pelo Google Maps) e multiplicar o valor por 10^7. Para obter a coordenada novamente, basta dividir o valor por 10^7. &#160;Isso utiliza basicamente metade do espaço de armazenamento comparado com tipo double, e ainda permite precisão de 1,1cm no pior caso para as coordenadas. Utiliza&#45;se sintaxe alternativa para economizar espaço &#160;scripts/deploy_generated.py automaticamente converte as coordenadas de arquivos .yaml e .md que forem colados como doubles para esse formato E7.">
<polygon fill="none" stroke="black" points="738.25,-69.25 738.25,-91 959.5,-91 959.5,-69.25 738.25,-69.25"/>
<text xml:space="preserve" text-anchor="start" x="805.75" y="-75.7" font-family="Arial" font-weight="bold" font-size="14.00">Coordenada</text>
<text xml:space="preserve" text-anchor="start" x="884.5" y="-75.7" font-family="Arial" font-size="14.00">  </text>
</a>
</g>
<polygon fill="none" stroke="black" points="738.25,-47.5 738.25,-69.25 806.5,-69.25 806.5,-47.5 738.25,-47.5"/>
<text xml:space="preserve" text-anchor="start" x="745.38" y="-53.95" font-family="Arial" font-weight="bold" font-size="14.00">Campo</text>
<text xml:space="preserve" text-anchor="start" x="791.88" y="-53.95" font-family="Arial" font-size="14.00">  </text>
<polygon fill="none" stroke="black" points="806.5,-47.5 806.5,-69.25 886.75,-69.25 886.75,-47.5 806.5,-47.5"/>
<text xml:space="preserve" text-anchor="start" x="816.62" y="-53.95" font-family="Arial" font-weight="bold" font-size="14.00">Relativo</text>
<text xml:space="preserve" text-anchor="start" x="869.12" y="-53.95" font-family="Arial" font-size="14.00">  </text>
<polygon fill="none" stroke="black" points="886.75,-47.5 886.75,-69.25 959.5,-69.25 959.5,-47.5 886.75,-47.5"/>
<text xml:space="preserve" text-anchor="start" x="890.12" y="-53.95" font-family="Arial" font-weight="bold" font-size="14.00">Absoluto</text>
<text xml:space="preserve" text-anchor="start" x="948.62" y="-53.95" font-family="Arial" font-size="14.00">  </text>
<polygon fill="none" stroke="black" points="738.25,-25.75 738.25,-47.5 806.5,-47.5 806.5,-25.75 738.25,-25.75"/>
<text xml:space="preserve" text-anchor="start" x="741.25" y="-31.75" font-family="Arial" font-size="14.00">latitude  </text>
<polygon fill="#ff0000" stroke="none" points="806.5,-25.75 806.5,-47.5 886.75,-47.5 886.75,-25.75 806.5,-25.75"/>
<polygon fill="none" stroke="black" points="806.5,-25.75 806.5,-47.5 886.75,-47.5 886.75,-25.75 806.5,-25.75"/>
<text xml:space="preserve" text-anchor="start" x="809.5" y="-31.75" font-family="Arial" font-size="14.00" fill="white">100% (2/2)  </text>
<polygon fill="#1700e7" stroke="none" points="886.75,-25.75 886.75,-47.5 959.5,-47.5 959.5,-25.75 886.75,-25.75"/>
<polygon fill="none" stroke="black" points="886.75,-25.75 886.75,-47.5 959.5,-47.5 959.5,-25.75 886.75,-25.75"/>
<text xml:space="preserve" text-anchor="start" x="889.75" y="-31.75" font-family="Arial" font-size="14.00" fill="white">9% (2/22)  </text>
<polygon fill="none" stroke="black" points="738.25,-4 738.25,-25.75 806.5,-25.75 806.5,-4 738.25,-4"/>
<text xml:space="preserve" text-anchor="start" x="741.25" y="-10" font-family="Arial" font-size="14.00">longitude  </text>
<polygon fill="#ff0000" stroke="none" points="806.5,-4 806.5,-25.75 886.75,-25.75 886.75,-4 806.5,-4"/>
<polygon fill="none" stroke="black" points="806.5,-4 806.5,-25.75 886.75,-25.75 886.75,-4 806.5,-4"/>
<text xml:space="preserve" text-anchor="start" x="809.5" y="-10" font-family="Arial" font-size="14.00" fill="white">100% (2/2)  </text>
<polygon fill="#1700e7" stroke="none" points="886.75,-4 886.75,-25.75 959.5,-25.75 959.5,-4 886.75,-4"/>
<polygon fill="none" stroke="black" points="886.75,-4 886.75,-25.75 959.5,-25.75 959.5,-4 886.75,-4"/>
<text xml:space="preserve" text-anchor="start" x="889.75" y="-10" font-family="Arial" font-size="14.00" fill="white">9% (2/22)  </text>
</g>
<!-- aresta.ResumoCroqui&#45;&gt;aresta.Coordenada -->
<g id="edge3" class="edge">

<path fill="none" stroke="black" d="M670.75,-92.75C699.29,-92.75 697.66,-58.72 718.19,-49.68"/>
<polygon fill="black" stroke="black" points="718.73,-53.14 727.88,-47.79 717.39,-46.27 718.73,-53.14"/>
</g>
</g>

<script type="text/javascript"><![CDATA[
window.addEventListener('load', function() {
    var svg = document.documentElement;
    var fo = document.createElementNS('http://www.w3.org/2000/svg', 'foreignObject');
    fo.setAttribute('width', '400');
    fo.setAttribute('height', '300');
    fo.setAttribute('pointer-events', 'none');
    fo.style.visibility = 'hidden';
    fo.style.overflow = 'visible';

    // Em um documento puramente XML/SVG, precisamos especificar o namespace HTML para elementos do DOM
    var div = document.createElementNS('http://www.w3.org/1999/xhtml', 'div');
    div.style.backgroundColor = '#1e1e1e';
    div.style.color = '#ffffff';
    div.style.padding = '10px 14px';
    div.style.borderRadius = '6px';
    div.style.fontFamily = 'Arial, sans-serif';
    div.style.fontSize = '14px';
    div.style.lineHeight = '1.4';
    div.style.boxShadow = '0 4px 12px rgba(0,0,0,0.5)';
    div.style.display = 'inline-block';
    div.style.maxWidth = '350px';
    div.style.wordWrap = 'break-word';
    div.style.border = '1px solid #444';
    
    fo.appendChild(div);
    svg.appendChild(fo);

    var links = document.querySelectorAll('a');
    links.forEach(function(a) {
        var title = a.getAttribute('data-tooltip');
        if (title) {
            a.addEventListener('mouseenter', function(e) {
                div.textContent = title;
                fo.style.visibility = 'visible';
            });
            a.addEventListener('mousemove', function(e) {
                var mouseX = e.clientX;
                var mouseY = e.clientY;
                
                var rect = div.getBoundingClientRect();
                var tw = rect.width || 350;
                var th = rect.height || 100;
                
                var svgRect = svg.getBoundingClientRect();
                
                var xOffset = 15;
                var yOffset = 15;
                
                // Calcula a posição relativa do mouse dentro do SVG
                if (mouseX - svgRect.left + xOffset + tw > svgRect.width) {
                    xOffset = -tw - 15;
                }
                
                if (mouseY - svgRect.top + yOffset + th > svgRect.height) {
                    yOffset = -th - 15;
                }
                
                var pt = svg.createSVGPoint();
                pt.x = mouseX + xOffset;
                pt.y = mouseY + yOffset;
                var svgP = pt.matrixTransform(svg.getScreenCTM().inverse());
                
                fo.setAttribute('x', svgP.x);
                fo.setAttribute('y', svgP.y);
            });
            a.addEventListener('mouseleave', function(e) {
                fo.style.visibility = 'hidden';
            });
        }
    });
});
]]></script>
</svg>

